<svg width="128" height="30" viewBox="0 0 128 30" fill="none" xmlns="http://www.w3.org/2000/svg">
<path d="M7.65306 26.3199C6.69254 26.7512 4.83484 27.4373 3.88629 26.6155C3.22707 26.0443 3.26374 24.6041 3.31063 23.817C3.45953 21.325 4.876 18.8672 6.37352 16.9357C8.16387 14.627 10.8434 12.8654 13.7634 12.7668C15.98 12.692 18.1637 13.5817 19.8944 14.9685C21.6252 16.3553 22.9329 18.212 23.9373 20.1891C24.4274 21.1539 24.8582 22.1852 24.8746 23.2672C24.8908 24.3492 24.4124 25.4966 23.4614 26.0126C22.6989 26.4264 21.7571 26.3778 20.932 26.1096C20.1069 25.8418 19.3634 25.3753 18.5994 24.964C17.1902 24.2056 15.6266 23.6149 14.0293 23.7119C11.7199 23.8526 9.76391 25.3721 7.65306 26.3199Z" fill="black"/>
<path d="M5.46221 14.1432C5.74581 16.4805 3.97017 17.7521 2.15663 15.9949C1.04446 14.9174 0.178717 13.0006 0.0235771 11.4594C-0.0544918 10.6827 0.0405378 9.80499 0.62618 9.28894C1.18738 8.79433 2.06484 8.79159 2.73454 9.12507C3.40424 9.45855 3.89535 10.0679 4.2812 10.7089C4.90999 11.7537 5.3153 12.9325 5.46221 14.1432Z" fill="black"/>
<path d="M12.1667 7.8491C12.5403 9.4222 12.0966 11.8501 9.9713 11.6715C7.4272 11.4577 7.13164 7.06766 7.40675 5.25861C7.50976 4.58018 7.7734 3.82269 8.41316 3.57477C8.85364 3.40391 9.3667 3.53511 9.75555 3.80373C10.1442 4.07211 10.431 4.46146 10.6986 4.85081C11.3319 5.77342 11.9081 6.76013 12.1667 7.8491Z" fill="black"/>
<path d="M21.0142 6.82031C21.0372 5.77798 20.8047 4.68376 20.1203 3.89734C19.4359 3.11091 18.2262 2.73104 17.3023 3.21417C16.3433 3.71551 15.9904 4.89877 15.8322 5.96904C15.6172 7.42241 15.2703 10.0932 16.3318 11.3176C16.9963 12.0841 17.9927 11.6853 18.7547 11.2426C20.2495 10.3736 20.978 8.47647 21.0142 6.82031Z" fill="black"/>
<path d="M27.2745 16.3564C25.7777 17.7681 22.7183 17.3306 22.9885 14.8955C23.171 13.2483 24.2922 11.5513 25.3083 10.2874C25.9281 9.51672 26.835 8.77245 27.8005 8.9872C28.5663 9.15756 29.093 9.9133 29.227 10.6863C29.3607 11.4592 29.1779 12.2494 28.9701 13.0059C28.6341 14.2285 28.1971 15.4864 27.2745 16.3564Z" fill="black"/>
<path d="M49.2125 12.48C49.2125 13.2933 49.0258 14.04 48.6525 14.72C48.2791 15.3867 47.7058 15.9267 46.9325 16.34C46.1591 16.7533 45.1991 16.96 44.0525 16.96H41.9325V22H38.5125V7.96H44.0525C45.1725 7.96 46.1191 8.15333 46.8925 8.54C47.6658 8.92667 48.2458 9.46 48.6325 10.14C49.0191 10.82 49.2125 11.6 49.2125 12.48ZM43.7925 14.24C44.4458 14.24 44.9325 14.0867 45.2525 13.78C45.5725 13.4733 45.7325 13.04 45.7325 12.48C45.7325 11.92 45.5725 11.4867 45.2525 11.18C44.9325 10.8733 44.4458 10.72 43.7925 10.72H41.9325V14.24H43.7925ZM61.5129 16.24C61.5129 16.56 61.4929 16.8933 61.4529 17.24H53.7129C53.7663 17.9333 53.9863 18.4667 54.3729 18.84C54.7729 19.2 55.2596 19.38 55.8329 19.38C56.6863 19.38 57.2796 19.02 57.6129 18.3H61.2529C61.0663 19.0333 60.7263 19.6933 60.2329 20.28C59.7529 20.8667 59.1463 21.3267 58.4129 21.66C57.6796 21.9933 56.8596 22.16 55.9529 22.16C54.8596 22.16 53.8863 21.9267 53.0329 21.46C52.1796 20.9933 51.5129 20.3267 51.0329 19.46C50.5529 18.5933 50.3129 17.58 50.3129 16.42C50.3129 15.26 50.5463 14.2467 51.0129 13.38C51.4929 12.5133 52.1596 11.8467 53.0129 11.38C53.8663 10.9133 54.8463 10.68 55.9529 10.68C57.0329 10.68 57.9929 10.9067 58.8329 11.36C59.6729 11.8133 60.3263 12.46 60.7929 13.3C61.2729 14.14 61.5129 15.12 61.5129 16.24ZM58.0129 15.34C58.0129 14.7533 57.8129 14.2867 57.4129 13.94C57.0129 13.5933 56.5129 13.42 55.9129 13.42C55.3396 13.42 54.8529 13.5867 54.4529 13.92C54.0663 14.2533 53.8263 14.7267 53.7329 15.34H58.0129ZM69.5371 19.1V22H67.7971C66.5571 22 65.5905 21.7 64.8971 21.1C64.2038 20.4867 63.8571 19.4933 63.8571 18.12V13.68H62.4971V10.84H63.8571V8.12H67.2771V10.84H69.5171V13.68H67.2771V18.16C67.2771 18.4933 67.3571 18.7333 67.5171 18.88C67.6771 19.0267 67.9438 19.1 68.3171 19.1H69.5371ZM80.7604 22.14C79.7338 22.14 78.8138 21.9733 78.0004 21.64C77.1871 21.3067 76.5338 20.8133 76.0404 20.16C75.5604 19.5067 75.3071 18.72 75.2804 17.8H78.9204C78.9738 18.32 79.1538 18.72 79.4604 19C79.7671 19.2667 80.1671 19.4 80.6604 19.4C81.1671 19.4 81.5671 19.2867 81.8604 19.06C82.1538 18.82 82.3004 18.4933 82.3004 18.08C82.3004 17.7333 82.1804 17.4467 81.9404 17.22C81.7138 16.9933 81.4271 16.8067 81.0804 16.66C80.7471 16.5133 80.2671 16.3467 79.6404 16.16C78.7338 15.88 77.9938 15.6 77.4204 15.32C76.8471 15.04 76.3538 14.6267 75.9404 14.08C75.5271 13.5333 75.3204 12.82 75.3204 11.94C75.3204 10.6333 75.7938 9.61333 76.7404 8.88C77.6871 8.13333 78.9204 7.76 80.4404 7.76C81.9871 7.76 83.2338 8.13333 84.1804 8.88C85.1271 9.61333 85.6338 10.64 85.7004 11.96H82.0004C81.9738 11.5067 81.8071 11.1533 81.5004 10.9C81.1938 10.6333 80.8004 10.5 80.3204 10.5C79.9071 10.5 79.5738 10.6133 79.3204 10.84C79.0671 11.0533 78.9404 11.3667 78.9404 11.78C78.9404 12.2333 79.1538 12.5867 79.5804 12.84C80.0071 13.0933 80.6738 13.3667 81.5804 13.66C82.4871 13.9667 83.2204 14.26 83.7804 14.54C84.3538 14.82 84.8471 15.2267 85.2604 15.76C85.6738 16.2933 85.8804 16.98 85.8804 17.82C85.8804 18.62 85.6738 19.3467 85.2604 20C84.8604 20.6533 84.2738 21.1733 83.5004 21.56C82.7271 21.9467 81.8138 22.14 80.7604 22.14ZM94.8451 10.72C96.1251 10.72 97.1518 11.1467 97.9251 12C98.6985 12.84 99.0851 14 99.0851 15.48V22H95.6851V15.94C95.6851 15.1933 95.4918 14.6133 95.1051 14.2C94.7185 13.7867 94.1985 13.58 93.5451 13.58C92.8918 13.58 92.3718 13.7867 91.9851 14.2C91.5985 14.6133 91.4051 15.1933 91.4051 15.94V22H87.9851V7.2H91.4051V12.34C91.7518 11.8467 92.2251 11.4533 92.8251 11.16C93.4251 10.8667 94.0985 10.72 94.8451 10.72ZM106.542 22.16C105.448 22.16 104.462 21.9267 103.582 21.46C102.715 20.9933 102.028 20.3267 101.522 19.46C101.028 18.5933 100.782 17.58 100.782 16.42C100.782 15.2733 101.035 14.2667 101.542 13.4C102.048 12.52 102.742 11.8467 103.622 11.38C104.502 10.9133 105.488 10.68 106.582 10.68C107.675 10.68 108.662 10.9133 109.542 11.38C110.422 11.8467 111.115 12.52 111.622 13.4C112.128 14.2667 112.382 15.2733 112.382 16.42C112.382 17.5667 112.122 18.58 111.602 19.46C111.095 20.3267 110.395 20.9933 109.502 21.46C108.622 21.9267 107.635 22.16 106.542 22.16ZM106.542 19.2C107.195 19.2 107.748 18.96 108.202 18.48C108.668 18 108.902 17.3133 108.902 16.42C108.902 15.5267 108.675 14.84 108.222 14.36C107.782 13.88 107.235 13.64 106.582 13.64C105.915 13.64 105.362 13.88 104.922 14.36C104.482 14.8267 104.262 15.5133 104.262 16.42C104.262 17.3133 104.475 18 104.902 18.48C105.342 18.96 105.888 19.2 106.542 19.2ZM117.616 12.42C117.949 11.9 118.409 11.48 118.996 11.16C119.583 10.84 120.269 10.68 121.056 10.68C121.976 10.68 122.809 10.9133 123.556 11.38C124.303 11.8467 124.889 12.5133 125.316 13.38C125.756 14.2467 125.976 15.2533 125.976 16.4C125.976 17.5467 125.756 18.56 125.316 19.44C124.889 20.3067 124.303 20.98 123.556 21.46C122.809 21.9267 121.976 22.16 121.056 22.16C120.283 22.16 119.596 22 118.996 21.68C118.409 21.36 117.949 20.9467 117.616 20.44V27.32H114.196V10.84H117.616V12.42ZM122.496 16.4C122.496 15.5467 122.256 14.88 121.776 14.4C121.309 13.9067 120.729 13.66 120.036 13.66C119.356 13.66 118.776 13.9067 118.296 14.4C117.829 14.8933 117.596 15.5667 117.596 16.42C117.596 17.2733 117.829 17.9467 118.296 18.44C118.776 18.9333 119.356 19.18 120.036 19.18C120.716 19.18 121.296 18.9333 121.776 18.44C122.256 17.9333 122.496 17.2533 122.496 16.4Z" fill="black"/>
</svg>
